# xmcd
#
# Track frame offsets:
#	150
#	13837
#	23345
#	40492
#	52870
#	65447
#	76962
#	90585
#	99975
#	114407
#	124470
#	135447
#	146347
#	162025
#	173365
#	184660
#	196165
#	207162
#	228147
#	241430
#	258995
#
# Disc length: 3600 seconds
#
# Revision: 1
# Processed by: cddbd v1.5.2PL0 Copyright (c) Steve Scherf et al.
# Submitted via: audiograbber 1.83.01
#
DISCID=020e0e15
DTITLE=Jim Croce - The Hits
DYEAR=2000
DGENRE=Country
TTITLE0=You Don't Mess Around With Jim
TTITLE1=Photographs And Memories
TTITLE2=Operator (Thats Not The Way It FeeIs)
TTITLE3=Rapid Roy (The Stock Car Boy)
TTITLE4=One Less Set Of Footsteps
TTITLE5=It Doesn't Have To Be That Way
TTITLE6=Bad Bad Leroy Brown
TTITLE7=A Good Time Man Like Me Aint Got No Business (Singin' The Blues)
TTITLE8=I Got A Name
TTITLE9=Alabama Rain
TTITLE10=Time In A Bottle
TTITLE11=Hard Time Losin' Man
TTITLE12=Roller Derby Queen
TTITLE13=I'll Have To Say I Love You In A Song
TTITLE14=Salon And Saloon
TTITLE15=Workin' At The Car Wash Blues
TTITLE16=Thursday
TTITLE17=Chain Gang Medley
TTITLE18=Stone Walls
TTITLE19=Mississippi Lady
TTITLE20=Maybe Tomorrow
EXTD=
EXTT0=
EXTT1=
EXTT2=
EXTT3=
EXTT4=
EXTT5=
EXTT6=
EXTT7=
EXTT8=
EXTT9=
EXTT10=
EXTT11=
EXTT12=
EXTT13=
EXTT14=
EXTT15=
EXTT16=
EXTT17=
EXTT18=
EXTT19=
EXTT20=
PLAYORDER=
